<svg width="24" height="24" viewBox="0 0 24 24" fill="none" xmlns="http://www.w3.org/2000/svg">
  <circle cx="12" cy="12" r="4" fill="black"/>
  <path
    fill="black"
    d="M12 2a1 1 0 0 1 1 1v1.25a1 1 0 1 1-2 0V3a1 1 0 0 1 1-1Zm7.07 1.93a1 1 0 0 1 0 1.41l-.88.88a1 1 0 1 1-1.41-1.41l.88-.88a1 1 0 0 1 1.41 0ZM22 11a1 1 0 0 1-1 1h-1.25a1 1 0 1 1 0-2H21a1 1 0 0 1 1 1Zm-1.93 7.07a1 1 0 0 1-1.41 0l-.88-.88a1 1 0 1 1 1.41-1.41l.88.88a1 1 0 0 1 0 1.41ZM12 20a1 1 0 0 1-1-1v-1.25a1 1 0 1 1 2 0V19a1 1 0 0 1-1 1Zm-7.07-1.93a1 1 0 0 1 0-1.41l.88-.88a1 1 0 1 1 1.41 1.41l-.88.88a1 1 0 0 1-1.41 0ZM2 13a1 1 0 0 1 1-1h1.25a1 1 0 1 1 0 2H3a1 1 0 0 1-1-1Zm1.93-7.07a1 1 0 0 1 1.41 0l.88.88a1 1 0 0 1-1.41 1.41l-.88-.88a1 1 0 0 1 0-1.41Z"
  />
</svg>
