<svg xmlns="http://www.w3.org/2000/svg" viewBox="0 0 24 24" fill="none">
  <path d="M9 3.75A1.75 1.75 0 0 1 10.75 2h2.5A1.75 1.75 0 0 1 15 3.75V4h3.25a.75.75 0 0 1 0 1.5h-.77l-.63 12.03A2 2 0 0 1 14.85 19.5H9.15a2 2 0 0 1-2-1.97L6.52 5.5h-.77a.75.75 0 0 1 0-1.5H9v-.25Zm1.5.25h3v-.25a.25.25 0 0 0-.25-.25h-2.5a.25.25 0 0 0-.25.25V4Zm-1.85 14h6.7a.5.5 0 0 0 .5-.48L16.47 5.5H7.53l.62 12.02a.5.5 0 0 0 .5.48ZM10 8.75a.75.75 0 0 1 1.5 0v5.5a.75.75 0 0 1-1.5 0v-5.5Zm2.5 0a.75.75 0 0 1 1.5 0v5.5a.75.75 0 0 1-1.5 0v-5.5Z" fill="currentColor"/>
</svg>
