<svg width="512" height="512" viewBox="0 0 512 512" fill="none" xmlns="http://www.w3.org/2000/svg">
  <defs>
    <linearGradient id="nanologoGradient" x1="92" y1="82" x2="420" y2="406" gradientUnits="userSpaceOnUse">
      <stop stop-color="#1FC5FF" />
      <stop offset="0.5" stop-color="#6854FF" />
      <stop offset="1" stop-color="#FF47C6" />
    </linearGradient>
    <linearGradient id="megaphoneGradient" x1="118" y1="188" x2="317" y2="321" gradientUnits="userSpaceOnUse">
      <stop stop-color="#24C4FF" />
      <stop offset="0.55" stop-color="#8B4DFF" />
      <stop offset="1" stop-color="#FF4CC7" />
    </linearGradient>
    <linearGradient id="darkAccent" x1="259" y1="165" x2="311" y2="317" gradientUnits="userSpaceOnUse">
      <stop stop-color="#5C29C7" />
      <stop offset="1" stop-color="#2F1E95" />
    </linearGradient>
  </defs>

  <path
    d="M144 94H271C370.411 94 451 174.589 451 274C451 373.411 370.411 454 271 454H144L170 386H271C332.856 386 383 335.856 383 274C383 212.144 332.856 162 271 162H170L144 94Z"
    fill="url(#nanologoGradient)"
  />
  <path
    d="M65 178C65 164.193 76.1929 153 90 153H159C172.807 153 184 164.193 184 178V212H303C319.569 212 333 225.431 333 242C333 258.569 319.569 272 303 272H184V306C184 319.807 172.807 331 159 331H90C76.1929 331 65 319.807 65 306V178Z"
    fill="white"
  />
  <path
    d="M208.8 208.256L308.88 164.071C316.625 160.652 325.214 166.318 325.214 174.784V338.718C325.214 347.165 316.662 352.833 308.92 349.452L208.84 305.742C194.355 299.416 185 285.117 185 269.311V244.712C185 228.898 194.364 214.595 208.8 208.256Z"
    fill="url(#megaphoneGradient)"
  />
  <path
    d="M185 213H137C123.193 213 112 224.193 112 238V275C112 288.807 123.193 300 137 300H185V213Z"
    fill="url(#megaphoneGradient)"
  />
  <path
    d="M135 299H174L191.16 358.174C194.523 369.774 187.254 381.661 175.295 383.359L162.594 385.163C154.698 386.284 147.136 381.683 144.386 374.194L123 316.002L135 299Z"
    fill="url(#nanologoGradient)"
  />
  <path
    d="M237.239 210.503C251.488 221.006 259.045 235.882 259.91 255.131C260.219 262.001 259.569 268.786 257.959 275.488C255.355 286.328 250.04 295.836 242.014 304.013L221.995 295.271C216.186 292.733 211.536 288.505 208.698 283.179C205.186 276.587 203.43 269.33 203.43 261.41V253.131C203.43 245.211 205.235 237.954 208.844 231.362C211.797 225.963 216.559 221.707 223.129 218.594L237.239 210.503Z"
    fill="white"
    fill-opacity="0.16"
  />
  <path
    d="M327.53 184.864C349.177 201.471 360 224.85 360 255C360 285.15 349.177 308.529 327.53 325.136"
    stroke="url(#megaphoneGradient)"
    stroke-width="18"
    stroke-linecap="round"
  />
  <path
    d="M356.5 159.5C387.5 182.428 403 214.262 403 255C403 295.738 387.5 327.572 356.5 350.5"
    stroke="url(#megaphoneGradient)"
    stroke-width="13"
    stroke-linecap="round"
    opacity="0.7"
  />
  <path
    d="M290.594 177C310.462 177 326.57 213.713 326.57 259C326.57 304.287 310.462 341 290.594 341C270.726 341 254.617 304.287 254.617 259C254.617 213.713 270.726 177 290.594 177Z"
    fill="url(#darkAccent)"
  />
  <path
    d="M279.612 188.333C293.354 188.333 304.494 219.972 304.494 259C304.494 298.028 293.354 329.667 279.612 329.667C265.87 329.667 254.73 298.028 254.73 259C254.73 219.972 265.87 188.333 279.612 188.333Z"
    fill="white"
    fill-opacity="0.04"
  />
  <path
    d="M303.067 239.756C315.001 239.756 324.675 249.43 324.675 261.364V276.734C324.675 278.046 323.15 278.775 322.127 277.954L291.519 253.377C290.69 252.711 290.674 251.443 291.486 250.756L308.03 241.487C309.54 240.641 311.241 239.756 313.239 239.756H303.067Z"
    fill="#FF72D7"
  />
</svg>
